<svg xmlns="http://www.w3.org/2000/svg" width="85" height="72" viewBox="0 0 85 72"><g><g><g><path fill="#fff" d="M17.16 34.983a3.975 3.975 0 0 0 0 1.264v7.087a7.554 7.554 0 0 1-2.13 5.303 7.528 7.528 0 0 1-10.562.244 7.554 7.554 0 0 1-2.373-5.198V35.19c0-.423-.063-.676-.537-.822A1.53 1.53 0 0 1 .51 32.731v-4.103c.039-1.764-.069-3.521.076-5.285a9.333 9.333 0 0 1 2.466-5.46 9.303 9.303 0 0 1 5.272-2.83c4.008-.568 7.19.854 9.468 4.212.94 1.371 1.855 2.762 2.764 4.16a.964.964 0 0 0 .903.512h42.105a.956.956 0 0 0 .903-.512 454.82 454.82 0 0 1 2.853-4.306 9.372 9.372 0 0 1 7.854-4.208 9.352 9.352 0 0 1 7.817 4.277 9.302 9.302 0 0 1 1.509 5.11v8.219c0 .942-.221 1.713-1.262 1.979-.354.094-.266.41-.266.663v8.308c.005.45-.029.897-.1 1.34a7.557 7.557 0 0 1-2.65 4.392 7.534 7.534 0 0 1-9.634-.115 7.557 7.557 0 0 1-2.543-4.453 14.045 14.045 0 0 1-.113-1.79v-7.144c0-.177.088-.436-.076-.525-.164-.088-.366.133-.518.253-1.13.835-2.26 1.67-3.37 2.53a5.044 5.044 0 0 1-3.156 1.08h-11.36a5.297 5.297 0 0 1-2.43-.594c-1.307-.683-2.645-1.322-3.958-1.998a.973.973 0 0 0-.998 0c-1.331.69-2.682 1.334-4.014 2.023a5.042 5.042 0 0 1-2.373.57H24.32a4.949 4.949 0 0 1-3.08-1.038c-1.377-1.005-2.702-1.96-4.078-3.015zm1.465-8.656v1.966a1.601 1.601 0 0 1-.401 1.191 1.598 1.598 0 0 1-1.139.529c-.928 0-1.54-.683-1.546-1.745 0-1.897-.045-3.793 0-5.69a3.228 3.228 0 0 0-.79-2.251 6.308 6.308 0 0 0-6.765-1.992 6.194 6.194 0 0 0-4.317 5.69c0 2.2-.045 4.388-.076 6.576 0 .708.044.771.757.771h12.238a2.652 2.652 0 0 1 1.717.57c1.509 1.169 3.036 2.288 4.576 3.464.427.338.958.515 1.502.5h11.172c.439 0 .871-.104 1.262-.304 1.566-.828 3.175-1.593 4.721-2.403a1.97 1.97 0 0 1 1.894 0c1.597.822 3.213 1.613 4.816 2.422.35.18.737.27 1.13.266h11.171a2.52 2.52 0 0 0 1.654-.557c1.439-1.106 2.91-2.175 4.342-3.287a3.091 3.091 0 0 1 1.97-.677h12.124c.492 0 .7-.127.694-.632v-6.747a5.313 5.313 0 0 0-.555-2.332 6.26 6.26 0 0 0-5.06-3.608 6.243 6.243 0 0 0-5.67 2.539 2.774 2.774 0 0 0-.631 1.802c.038 2.004 0 4.015 0 6.019a1.507 1.507 0 0 1-1.073 1.542 1.548 1.548 0 0 1-1.988-1.53v-2.105a2.287 2.287 0 0 1-1.976.727H20.601a2.327 2.327 0 0 1-1.976-.714zm56.843 21.566a4.412 4.412 0 0 0 2.594-.838 4.428 4.428 0 0 0 1.61-2.203c.075-.234.17-.461-.133-.632-.631-.322-1.18-.702-1.894-.152a9.944 9.944 0 0 1-1.262.677 1.722 1.722 0 0 1-1.71 0 15.23 15.23 0 0 1-1.395-.715 1.379 1.379 0 0 0-1.603 0 .629.629 0 0 0-.447.67c.01.096.041.19.093.272a4.463 4.463 0 0 0 4.147 2.921zm-65.925 0a4.415 4.415 0 0 0 4.222-2.896.635.635 0 0 0-.096-.755.624.624 0 0 0-.226-.149 1.528 1.528 0 0 0-1.654 0c-2.436 1.265-1.969 1.265-4.298.038a1.637 1.637 0 0 0-1.811 0c-.31.196-.404.354-.29.721a4.474 4.474 0 0 0 4.153 3.041zm61.481-11.558c.057.005.114.005.17 0 .088-.03.173-.068.253-.113a1.831 1.831 0 0 1 2.058 0c.48.284 1.016.48 1.496.759a.883.883 0 0 0 .946 0c.581-.31 1.168-.589 1.749-.886a1.85 1.85 0 0 1 1.262-.126c.316.063.631.524.871.253.24-.272.063-.683.076-1.03a.688.688 0 0 0 0-.115c.044-.41-.139-.569-.55-.562h-7.788c-.22 0-.53-.09-.53.303-.019.519-.013 1.024-.013 1.517zM9.568 34.528H6.475c-1.496 0-1.307-.247-1.325 1.416 0 .398.126.455.46.259a1.888 1.888 0 0 1 2.064.05c.474.272.972.481 1.452.747a.87.87 0 0 0 .94 0c.575-.317 1.174-.589 1.755-.886a1.655 1.655 0 0 1 1.262-.12c.297.082.632.474.846.253.215-.221.057-.632.076-.98a.688.688 0 0 0 0-.114c.05-.455-.145-.632-.631-.632-1.262.019-2.538.007-3.806.007zm61.47 5.936c.043.152-.146.632.327.316a1.987 1.987 0 0 1 2.36.101 2.668 2.668 0 0 0 3.46 0 1.95 1.95 0 0 1 2.354-.113c.22.139.366.082.347-.196-.019-.278.126-.633-.215-.753-.498-.177-.89-.765-1.52-.461-.632.303-1.263.632-1.85.936a1.704 1.704 0 0 1-1.666 0l-1.856-.93a1.456 1.456 0 0 0-1.742 1.1zm-57.046-.057c0-.26 0-.486-.24-.632-.63-.335-1.18-.632-2-.208-2.38 1.264-1.837 1.302-4.419 0a1.722 1.722 0 0 0-2.02.265.742.742 0 0 0-.119.891c.139.266.385-.044.562-.12a1.796 1.796 0 0 1 1.672 0c.53.272 1.073.531 1.597.822a.966.966 0 0 0 1.048 0c.498-.29 1.047-.506 1.546-.79a1.715 1.715 0 0 1 1.862 0c.404.278.568.183.511-.24z"/></g><g><path fill="#fff" d="M23.687 71.989h-5.964V70.23a2.386 2.386 0 0 1-.733 1.302 3.345 3.345 0 0 1-1.975.456H8.318c-3.206 0-4.81-1.792-4.81-5.374V57.94c0-3.587 1.598-5.378 4.791-5.374h14.877v3.218H12.358c-.972 0-1.452.405-1.452 1.214v10.558c0 .81.48 1.215 1.452 1.215h2.524c.953 0 1.427-.405 1.427-1.215v-4.002h-4.014v-3.218h11.36z"/></g><g><path fill="#fff" d="M34.385 71.989H27.02V52.566h7.365z"/></g><g><path fill="#fff" d="M58.982 71.989H50.89l-3.509-8.435h-2.272v8.435H37.71V52.566h15.395c1.653 0 2.844.303 3.572.91.808.691 1.212 1.825 1.212 3.402v3.73c0 1.96-.991 2.946-2.967 2.946zm-8.483-12.746v-2.34a.888.888 0 0 0-.628-1.1.886.886 0 0 0-.464.006h-4.298v4.552h4.298a.966.966 0 0 0 1.092-1.118z"/></g><g><path fill="#fff" d="M81.52 66.615c0 3.587-1.594 5.378-4.784 5.374h-11.36c-3.194 0-4.791-1.792-4.791-5.374V57.94c0-3.587 1.597-5.378 4.79-5.374h11.361c3.19 0 4.785 1.791 4.785 5.374zm-7.39.941V56.998c0-.81-.487-1.214-1.452-1.214h-3.213c-.972 0-1.458.405-1.458 1.214v10.558c0 .81.486 1.215 1.458 1.215h3.213c.965 0 1.452-.405 1.452-1.215z"/></g><g><path fill="#fff" d="M46.586 19.423h-7.398V4.128l-5.402 15.295h-5.157L23.37 4.128v15.295h-3.206V0h9.468l3.698 11.014h.057L37.308 0h9.278z"/></g><g><path fill="#fff" d="M71.877 0l-7.619 12.228v7.195h-7.41v-7.588L49.186 0h8.76l5.151 8.073L68.147 0z"/></g></g></g></svg>