<svg xmlns="http://www.w3.org/2000/svg" width="40" height="40" viewBox="0 0 40 40"><g><g><path fill="#fff" d="M29.5 24.725v2.86a1.905 1.905 0 0 1-1.3 1.814c-.251.085-.518.117-.783.093a18.934 18.934 0 0 1-8.245-2.927 18.609 18.609 0 0 1-5.732-5.72 18.841 18.841 0 0 1-2.932-8.267 1.903 1.903 0 0 1 1.13-1.916c.243-.107.505-.162.77-.162h2.867a1.911 1.911 0 0 1 1.91 1.64c.121.915.345 1.814.669 2.679a1.904 1.904 0 0 1-.43 2.011l-1.213 1.212a15.27 15.27 0 0 0 5.732 5.72l1.213-1.211a1.913 1.913 0 0 1 2.016-.43c.866.324 1.767.548 2.684.668a1.905 1.905 0 0 1 1.643 1.936z"/><path fill="none" stroke="#fff" stroke-miterlimit="20" d="M29.5 24.725v2.86a1.905 1.905 0 0 1-1.3 1.814c-.251.085-.518.117-.783.093a18.934 18.934 0 0 1-8.245-2.927 18.609 18.609 0 0 1-5.732-5.72 18.841 18.841 0 0 1-2.932-8.267 1.903 1.903 0 0 1 1.13-1.916c.243-.107.505-.162.77-.162h2.867a1.911 1.911 0 0 1 1.91 1.64c.121.915.345 1.814.669 2.679a1.904 1.904 0 0 1-.43 2.011l-1.213 1.212a15.27 15.27 0 0 0 5.732 5.72l1.213-1.211a1.913 1.913 0 0 1 2.016-.43c.866.324 1.767.548 2.684.668a1.905 1.905 0 0 1 1.643 1.936z"/></g></g></svg>